<svg xmlns="http://www.w3.org/2000/svg" viewBox="0 0 20 20"><path d="M14.033 6.737a1.1 1.1 0 10-1.076-1.108 1.092 1.092 0 001.076 1.108zM5.962 14.412l-1.649.046a5.7 5.7 0 01-.652-2.652A5.851 5.851 0 015.428 7.63a6.528 6.528 0 014.733-1.85 6.461 6.461 0 01.669.05.841.841 0 00.209-1.668A8.323 8.323 0 0010.2 4.1a8.182 8.182 0 00-5.932 2.327A7.979 7.979 0 002 12a7.237 7.237 0 00.844 3.241 1.607 1.607 0 001.44.852h1.678a.841.841 0 000-1.682zM16.857 7.687a.824.824 0 00-1.145-.26.847.847 0 00-.257 1.16 5.714 5.714 0 01.886 3.038 4.63 4.63 0 01-.624 2.437h-1.738a1.132 1.132 0 00-.83 1 1.2 1.2 0 00.83 1.031h1.738a2.321 2.321 0 001.44-1.042 7.364 7.364 0 00-.3-7.365zM9.982 15.636a.842.842 0 01-.327-.066.866.866 0 01-.455-1.127l.435-1.058a1.381 1.381 0 101.568.666l-.434 1.055a.851.851 0 01-.787.53z"/><path d="M12.205 9.373a.847.847 0 00-1.112.463l-1.46 3.549-.433 1.058a.866.866 0 00.457 1.127.842.842 0 00.327.066.851.851 0 00.785-.53l.434-1.055 1.459-3.551a.865.865 0 00-.457-1.127z"/></svg>