<svg class="iconItem" viewBox="0 0 31 13" xmlns="http://www.w3.org/2000/svg"><g fill-rule="evenodd"><path d="M3.779891 6.817935c.671196.883152 1.483696 1.730978 2.296196 2.543478C7.48913 10.774456 9.078804 12.046196 10.703804 13h-4.69837C3.567935 11.233696 1.413045 8.866848 0 6.5 1.413043 4.133152 3.567935 1.766304 6.005435 0h4.69837c-1.625.953804-3.214675 2.225543-4.627718 3.638587-.8125.8125-1.625 1.695652-2.296196 2.543478-.070652.070652-.105978.17663-.105978.282609 0 .17663.035326.247283.105978.35326M26.923913 6.817935c-.671196.883152-1.483696 1.730978-2.296196 2.543478C23.214674 10.774456 21.625 12.046196 20 13h4.69837c2.4375-1.766304 4.59239-4.133152 6.005434-6.5C29.290761 4.133152 27.13587 1.766304 24.69837 0H20c1.625.953804 3.214674 2.225543 4.627717 3.638587.8125.8125 1.625 1.695652 2.296196 2.543478.070652.070652.105978.17663.105978.282609 0 .17663-.035326.247283-.105978.35326"/><path d="M15.5 0C11.932065 0 9 2.89674 9 6.5c0 3.567935 2.89674 6.5 6.5 6.5 3.567935 0 6.5-2.89674 6.5-6.5S19.10326 0 15.5 0zm0 9.255435c-1.519022 0-2.79076-1.236413-2.79076-2.790761 0-1.519022 1.236412-2.790761 2.79076-2.790761 1.519022 0 2.79076 1.236413 2.79076 2.79076 0 1.554349-1.236412 2.790762-2.79076 2.790762z"/></g></svg>