<svg xmlns="http://www.w3.org/2000/svg" viewBox="0 0 24 24"><path d="M20.6006 10.9964h-1.0564a7.5733 7.5733 0 00-1.5035-3.62l.7494-.7494a1.002 1.002 0 00-1.4168-1.4174l-.75.7494a7.5726 7.5726 0 00-3.62-1.5029v-1.057a1.002 1.002 0 00-2.0039 0v1.0565a7.5726 7.5726 0 00-3.621 1.5029l-.7494-.7494a1.0023 1.0023 0 10-1.4174 1.4174l.7494.7494a7.5675 7.5675 0 00-1.5035 3.6205H3.401a1.002 1.002 0 000 2.0036h1.0565a7.5671 7.5671 0 001.5035 3.6214l-.7494.7494a1.002 1.002 0 001.4174 1.4168l.7494-.7494a7.5675 7.5675 0 003.6205 1.5035v1.0559a1.002 1.002 0 002.0039 0v-1.0559a7.5675 7.5675 0 003.6205-1.5035l.7494.7494a1.002 1.002 0 001.4173-1.4168l-.7494-.7494A7.5671 7.5671 0 0019.5442 13h1.0564a1.002 1.002 0 100-2.0039zm-8.6 6.6152a5.613 5.613 0 115.6127-5.6132 5.6194 5.6194 0 01-5.6125 5.6132z"/><circle cx="12.005" cy="11.875" r="1.302"/></svg>